{
    "asset" : {
        "generator" : "Khronos glTF Blender I/O v1.7.33",
        "version" : "2.0"
    },
    "extensionsUsed" : [
        "KHR_materials_transmission"
    ],
    "scene" : 0,
    "scenes" : [
        {
            "name" : "Scene",
            "nodes" : [
                0
            ]
        }
    ],
    "nodes" : [
        {
            "mesh" : 0,
            "name" : "firstState"
        }
    ],
    "animations" : [
        {
            "channels" : [
                {
                    "sampler" : 0,
                    "target" : {
                        "node" : 0,
                        "path" : "weights"
                    }
                }
            ],
            "name" : "flowerAnimation",
            "samplers" : [
                {
                    "input" : 5,
                    "interpolation" : "LINEAR",
                    "output" : 6
                }
            ]
        }
    ],
    "materials" : [
        {
            "doubleSided" : true,
            "extensions" : {
                "KHR_materials_transmission" : {
                    "transmissionFactor" : 0.25
                }
            },
            "name" : "Material.002",
            "pbrMetallicRoughness" : {
                "metallicFactor" : 0,
                "roughnessFactor" : 0.4000000059604645
            }
        }
    ],
    "meshes" : [
        {
            "extras" : {
                "targetNames" : [
                    "secontState"
                ]
            },
            "name" : "Cube.001",
            "primitives" : [
                {
                    "attributes" : {
                        "POSITION" : 0,
                        "NORMAL" : 1
                    },
                    "indices" : 2,
                    "material" : 0,
                    "targets" : [
                        {
                            "POSITION" : 3,
                            "NORMAL" : 4
                        }
                    ]
                }
            ],
            "weights" : [
                0
            ]
        }
    ],
    "accessors" : [
        {
            "bufferView" : 0,
            "componentType" : 5126,
            "count" : 52080,
            "max" : [
                1.685156226158142,
                1.9522323608398438,
                1.6001627445220947
            ],
            "min" : [
                -1.6449991464614868,
                0.07392863929271698,
                -1.6737221479415894
            ],
            "type" : "VEC3"
        },
        {
            "bufferView" : 1,
            "componentType" : 5126,
            "count" : 52080,
            "type" : "VEC3"
        },
        {
            "bufferView" : 2,
            "componentType" : 5123,
            "count" : 309420,
            "type" : "SCALAR"
        },
        {
            "bufferView" : 3,
            "componentType" : 5126,
            "count" : 52080,
            "max" : [
                0.46129316091537476,
                0.22113251686096191,
                0.4754275381565094
            ],
            "min" : [
                -0.4214833974838257,
                -0.0009641051292419434,
                -0.4717141389846802
            ],
            "type" : "VEC3"
        },
        {
            "bufferView" : 4,
            "componentType" : 5126,
            "count" : 52080,
            "type" : "VEC3"
        },
        {
            "bufferView" : 5,
            "componentType" : 5126,
            "count" : 251,
            "max" : [
                10.416666666666666
            ],
            "min" : [
                0
            ],
            "type" : "SCALAR"
        },
        {
            "bufferView" : 6,
            "componentType" : 5126,
            "count" : 251,
            "type" : "SCALAR"
        }
    ],
    "bufferViews" : [
        {
            "buffer" : 0,
            "byteLength" : 624960,
            "byteOffset" : 0
        },
        {
            "buffer" : 0,
            "byteLength" : 624960,
            "byteOffset" : 624960
        },
        {
            "buffer" : 0,
            "byteLength" : 618840,
            "byteOffset" : 1249920
        },
        {
            "buffer" : 0,
            "byteLength" : 624960,
            "byteOffset" : 1868760
        },
        {
            "buffer" : 0,
            "byteLength" : 624960,
            "byteOffset" : 2493720
        },
        {
            "buffer" : 0,
            "byteLength" : 1004,
            "byteOffset" : 3118680
        },
        {
            "buffer" : 0,
            "byteLength" : 1004,
            "byteOffset" : 3119684
        }
    ],
    "buffers" : [
        {
            "byteLength" : 3120688,
            "uri" : "data:application/octet-stream;base64,"
        }
    ]
}
